<?xml version="1.0" standalone="no"?>
<!DOCTYPE svg PUBLIC "-//W3C//DTD SVG 20010904//EN"
 "http://www.w3.org/TR/2001/REC-SVG-20010904/DTD/svg10.dtd">
<svg version="1.0" xmlns="http://www.w3.org/2000/svg"
 width="1024.000000pt" height="1024.000000pt" viewBox="0 0 1024.000000 1024.000000"
 preserveAspectRatio="xMidYMid meet">
<metadata>
Created by potrace 1.11, written by Peter Selinger 2001-2013
</metadata>
<g transform="translate(0.000000,1024.000000) scale(0.100000,-0.100000)"
fill="#000000" stroke="none">
<path d="M4004 10226 c-143 -35 -249 -153 -273 -306 -7 -41 -11 -340 -11 -802
l0 -737 -782 -3 -783 -3 -60 -24 c-82 -33 -173 -124 -206 -206 l-24 -60 -3
-782 -3 -783 -737 0 c-462 0 -761 -4 -802 -11 -155 -24 -272 -130 -306 -278
-20 -82 -20 -2140 0 -2222 34 -148 151 -254 306 -278 41 -7 340 -11 802 -11
l737 0 3 -782 3 -783 24 -60 c33 -82 124 -173 206 -206 l60 -24 783 -3 782 -3
0 -737 c0 -462 4 -761 11 -802 24 -155 130 -272 278 -306 82 -20 2140 -20
2222 0 148 34 254 151 278 306 7 41 11 340 11 802 l0 737 783 3 782 3 60 24
c82 33 173 124 206 206 l24 60 3 783 3 782 737 0 c462 0 761 4 802 11 155 24
272 130 306 278 11 45 14 268 14 1111 0 843 -3 1066 -14 1111 -34 148 -151
254 -306 278 -41 7 -340 11 -802 11 l-737 0 -3 783 -3 782 -24 60 c-33 82
-124 173 -206 206 l-60 24 -782 3 -783 3 0 737 c0 462 -4 761 -11 802 -24 155
-130 272 -278 306 -79 19 -2150 19 -2227 0z m1584 -3708 l2 -928 928 -2 927
-3 0 -465 0 -465 -927 -3 -928 -2 -2 -928 -3 -927 -465 0 -465 0 -3 927 -2
928 -928 2 -927 3 0 465 0 465 928 3 927 2 0 923 c0 508 3 927 7 930 3 4 214
6 467 5 l461 -3 3 -927z"/>
</g>
</svg>
