<?xml version="1.0" encoding="UTF-8" standalone="no"?>
<!-- Created with Inkscape (http://www.inkscape.org/) -->

<svg
   xmlns:dc="http://purl.org/dc/elements/1.1/"
   xmlns:cc="http://creativecommons.org/ns#"
   xmlns:rdf="http://www.w3.org/1999/02/22-rdf-syntax-ns#"
   xmlns:svg="http://www.w3.org/2000/svg"
   xmlns="http://www.w3.org/2000/svg"
   xmlns:sodipodi="http://sodipodi.sourceforge.net/DTD/sodipodi-0.dtd"
   xmlns:inkscape="http://www.inkscape.org/namespaces/inkscape"
   id="svg3441"
   version="1.1"
   inkscape:version="0.91 r13725"
   width="197"
   height="365"
   viewBox="0 0 197 365"
   sodipodi:docname="frappe.svg">
  <metadata
     id="metadata3447">
    <rdf:RDF>
      <cc:Work
         rdf:about="">
        <dc:format>image/svg+xml</dc:format>
        <dc:type
           rdf:resource="http://purl.org/dc/dcmitype/StillImage" />
        <dc:title></dc:title>
      </cc:Work>
    </rdf:RDF>
  </metadata>
  <defs
     id="defs3445" />
  <sodipodi:namedview
     pagecolor="#ffffff"
     bordercolor="#666666"
     borderopacity="1"
     objecttolerance="10"
     gridtolerance="10"
     guidetolerance="10"
     inkscape:pageopacity="0"
     inkscape:pageshadow="2"
     inkscape:window-width="1366"
     inkscape:window-height="702"
     id="namedview3443"
     showgrid="false"
     inkscape:zoom="1.27"
     inkscape:cx="231.32196"
     inkscape:cy="200"
     inkscape:window-x="0"
     inkscape:window-y="27"
     inkscape:window-maximized="1"
     inkscape:current-layer="svg3441" />
  <g
     id="g3359"
     transform="translate(-124.77165,-38.732283)">
    <path
       style="fill:#fdebce"
       d="m 162.62249,397.53538 c -4.01668,-1.46881 -6.78786,-6.63457 -6.78786,-12.65327 0,-2.78678 -0.44896,-6.24773 -0.9977,-7.69101 -0.54873,-1.44328 -1.44767,-7.88508 -1.99764,-14.3151 -1.97442,-23.08405 -3.00708,-32.76807 -3.99778,-37.49018 -0.55378,-2.63957 -1.00688,-7.85992 -1.00688,-11.60078 0,-3.74085 -0.43709,-8.1062 -0.9713,-9.70078 -0.53422,-1.59457 -1.44367,-8.29922 -2.02101,-14.89922 -0.57733,-6.6 -1.48022,-16.93686 -2.00643,-22.9708 -0.52621,-6.03394 -1.23788,-11.65894 -1.58148,-12.5 -0.34361,-0.84106 -1.00179,-6.2542 -1.46263,-12.0292 -0.46084,-5.775 -1.55142,-16.575 -2.42352,-24 -0.8721,-7.425 -1.95497,-18.49388 -2.40637,-24.59751 -0.45141,-6.10364 -1.14471,-11.6217 -1.54066,-12.26238 -0.39596,-0.64067 -1.10085,-5.99679 -1.56643,-11.90248 -0.46557,-5.9057 -1.58622,-17.71263 -2.49032,-26.23763 -1.8254,-17.21211 -1.51002,-21.11074 1.99097,-24.61173 l 2.38827,-2.38827 40.92301,0 c 31.52994,0 41.15618,-0.28691 41.93888,-1.25 0.55873,-0.6875 2.46607,-3.95 4.23853,-7.25 3.19891,-5.95577 7.50755,-13.782304 11.2856,-20.500001 3.71842,-6.611672 11.37697,-20.507531 15.15633,-27.5 2.08088,-3.85 4.9149,-8.510247 6.29781,-10.356105 4.27182,-5.701842 6.58995,-6.143895 32.21863,-6.143895 28.08349,0 27.03212,-0.478391 27.03212,12.3 0,5.122222 -0.45944,8.759438 -1.2,9.5 -0.85464,0.854637 -7.05142,1.2 -21.53138,1.2 -18.09708,0 -20.40205,0.184145 -20.9744,1.675652 -0.35365,0.921609 -3.48953,6.603421 -6.96861,12.626249 -3.47909,6.022828 -6.32561,11.078495 -6.32561,11.234815 0,0.15632 -1.87203,3.587008 -4.16007,7.623751 -6.91173,12.194244 -8.64733,15.698804 -8.06371,16.282424 0.30641,0.30641 16.00429,0.55711 34.88417,0.55711 l 34.32707,0 3.09721,4.25 c 2.69007,3.69132 3.02655,4.84154 2.55967,8.75 -3.09343,25.8965 -3.86525,33.1082 -4.62744,43.23733 -0.48577,6.45554 -1.24285,12.30554 -1.6824,13 -0.43956,0.69447 -1.09526,5.76267 -1.45711,11.26267 -1.03968,15.80265 -2.79497,32.62553 -3.88069,37.19282 -0.54818,2.30605 -1.0077,7.25605 -1.02115,11 -0.0134,3.74395 -0.49956,8.83218 -1.08025,11.30718 -1.01318,4.31826 -1.63167,10.13765 -3.87929,36.5 -0.56271,6.6 -1.47151,13.30465 -2.01956,14.89922 -0.54805,1.59458 -0.99645,5.95993 -0.99645,9.70078 0,3.74086 -0.45723,8.96121 -1.01606,11.60078 -0.98745,4.6641 -2.08568,15.1954 -3.9421,37.80224 -0.49695,6.05166 -1.38466,12.26846 -1.97269,13.8151 -0.58803,1.54664 -1.06915,4.59862 -1.06915,6.78216 0,2.18355 -0.74182,5.10225 -1.6485,6.48602 -3.61436,5.51621 -2.44443,5.42027 -65.05184,5.33475 -35.51521,-0.0485 -58.84532,-0.46132 -60.5118,-1.07071 z m 106.00195,-25.85034 c 0.15939,-2.475 0.94689,-8.03721 1.75,-12.36047 0.8031,-4.32326 1.46019,-10.2774 1.46019,-13.23144 0,-2.95403 0.4395,-8.41682 0.97667,-12.13953 1.42194,-9.85431 3.05839,-24.33047 4.04345,-35.76856 0.47367,-5.5 1.58415,-16.3 2.46773,-24 0.88358,-7.7 1.98308,-18.725 2.44332,-24.5 0.46024,-5.775 1.30551,-12.525 1.87837,-15 1.45229,-6.27453 1.84614,-20.74432 0.59859,-21.99187 -0.68167,-0.68167 -21.38784,-0.93762 -61.96595,-0.76595 l -60.94218,0.25782 -0.30351,7 c -0.16693,3.85 0.21108,9.025 0.84002,11.5 0.62893,2.475 1.54864,9.45 2.04378,15.5 0.49514,6.05 1.58537,17.075 2.42274,24.5 0.83737,7.425 1.90317,18.2776 2.36844,24.11688 0.46527,5.83929 1.13499,11.08455 1.48826,11.65615 0.35326,0.5716 1.09392,6.594 1.64589,13.38312 2.3051,28.35208 2.93743,34.62959 3.91599,38.87618 0.56622,2.45722 1.0405,7.20517 1.05394,10.551 0.0135,3.34584 0.32898,6.38787 0.70119,6.76007 0.3722,0.37221 20.9597,0.55971 45.75,0.41667 l 45.07326,-0.26007 0.28981,-4.5 z m 20.23494,-184.5651 c 0.53639,-1.4108 0.97669,-5.5733 0.97844,-9.25 0.002,-3.67669 0.63671,-10.5099 1.41101,-15.1849 0.77429,-4.675 1.65116,-12.44051 1.9486,-17.25669 l 0.54079,-8.7567 -70.61991,0.2567 -70.61991,0.25669 0.23814,7.5 c 0.13098,4.125 0.88155,10.875 1.66794,15 0.7864,4.125 1.42988,10.47035 1.42998,14.10078 9e-5,3.63042 0.4898,8.13042 1.08824,10 0.59844,1.86957 1.25932,3.96172 1.46862,4.64922 0.29931,0.98316 14.16139,1.25 64.93668,1.25 l 64.55613,0 0.97525,-2.5651 z"
       id="path3347"
       inkscape:connector-curvature="0" />
    <path
       style="fill:#fddaa1"
       d="m 163.09095,396.65622 c -5.1873,-2.08551 -5.81618,-4.65184 -9.30483,-37.97118 -0.48949,-4.675 -1.60105,-14.575 -2.47014,-22 -0.86908,-7.425 -1.97388,-18 -2.45509,-23.5 -0.48122,-5.5 -1.32987,-13.6 -1.88589,-18 -0.55603,-4.4 -1.48599,-12.5 -2.06659,-18 -4.21094,-39.89025 -4.55628,-43.06963 -8.09213,-74.5 -0.52593,-4.675 -1.65886,-15.475 -2.51761,-24 -0.85876,-8.525 -2.24007,-20.675 -3.06959,-27 -0.82951,-6.325 -1.59511,-15.62423 -1.70133,-20.66496 -0.17826,-8.45973 -0.007,-9.36389 2.23119,-11.75 l 2.42432,-2.58504 40.83547,0 c 46.75237,0 41.41457,1.19078 47.77709,-10.6583 2.02055,-3.76293 4.94033,-9.091701 6.4884,-11.841701 1.54806,-2.75 5.29512,-9.5 8.3268,-15 3.03167,-5.5 6.63437,-12.025 8.00599,-14.5 1.37162,-2.475 4.05552,-7.326191 5.96423,-10.780423 5.1854,-9.384148 4.87306,-9.301557 33.98758,-8.987081 l 24.76581,0.267504 0.2868,9.195122 c 0.37946,12.165796 1.18956,11.769451 -22.52834,11.022083 l -18.32263,-0.577358 -2.36413,3.680076 c -1.30028,2.024043 -7.08049,12.260054 -12.84492,22.746693 -5.76443,10.486635 -11.09863,20.062865 -11.85378,21.280515 -1.17937,1.90168 -1.16146,2.34846 0.127,3.16807 0.87408,0.55602 15.51036,0.96057 35.07569,0.96949 33.51871,0.0153 33.57926,0.0191 35.68338,2.26531 3.44915,3.68201 4.21362,6.96681 3.23858,13.91575 -0.91997,6.55655 -2.56013,21.07777 -4.04744,35.83425 -0.47119,4.675 -1.5559,15.025 -2.41047,23 -0.85457,7.975 -2.00855,19.225 -2.5644,25 -0.55585,5.775 -1.21894,11.175 -1.47352,12 -0.25459,0.825 -0.92127,6.45 -1.48151,12.5 -0.56024,6.05 -1.70963,17.3 -2.5542,25 -0.84457,7.7 -1.95986,18.5 -2.47844,24 -0.51857,5.5 -1.17328,11.125 -1.45492,12.5 -0.28163,1.375 -0.96465,7.225 -1.51782,13 -0.55317,5.775 -1.68822,16.575 -2.52234,24 -0.83411,7.425 -1.93738,17.775 -2.45169,23 -2.70937,27.525 -3.624,30.90187 -9.1373,33.73526 -2.89646,1.48855 -115.97701,1.71152 -119.64728,0.23592 z m 106.95906,-25.47118 c 0.39345,-3.3 1.18308,-10.5 1.75473,-16 0.57164,-5.5 1.47805,-13.825 2.01423,-18.5 1.11636,-9.73366 3.41186,-31.41308 5.02948,-47.5 1.18191,-11.75387 3.36148,-31.61943 4.99208,-45.5 2.09837,-17.86241 3.03029,-31.36381 2.22075,-32.17335 -0.46306,-0.46306 -28.94099,-0.72599 -63.28429,-0.58429 l -62.44236,0.25764 -0.31824,4.4698 c -0.17503,2.45839 0.19343,8.98339 0.81879,14.5 0.62537,5.51661 1.5315,14.0802 2.01363,19.0302 0.48213,4.95 1.34626,13.05 1.92029,18 0.57403,4.95 1.49584,13.275 2.04847,18.5 0.55262,5.225 1.50548,14 2.11745,19.5 0.61198,5.5 1.48447,13.825 1.93888,18.5 0.4544,4.675 1.52959,15.025 2.3893,23 0.85971,7.975 1.8182,17.2 2.12996,20.5 0.31177,3.3 0.77334,7.01699 1.02571,8.25997 l 0.45887,2.25998 46.22845,-0.25998 46.22844,-0.25997 0.71538,-6 z m 19.97915,-186 c 1.43569,-10.33575 3.85412,-35.25853 4.07555,-42 l 0.22992,-7 -70.5,-0.23854 c -38.775,-0.13119 -71.0423,0.10788 -71.70512,0.53128 -0.93608,0.59796 -0.87973,3.88829 0.2524,14.73854 0.80163,7.6828 1.93357,19.13031 2.51542,25.43892 0.58185,6.30861 1.53854,12.04932 2.12598,12.75714 0.85498,1.03019 14.16059,1.23565 66.6897,1.02981 l 65.62162,-0.25715 0.69453,-5 z"
       id="path3345"
       inkscape:connector-curvature="0" />
    <path
       style="fill:#fdc66e"
       d="m 163.13699,395.67325 c -3.42229,-1.37821 -5.22267,-6.07605 -6.29623,-16.42912 -0.54347,-5.241 -1.69386,-15.72335 -2.55643,-23.29409 -1.56056,-13.69687 -1.98188,-17.61722 -4.86468,-45.265 -0.83154,-7.975 -2.22954,-20.8 -3.10666,-28.5 -0.87713,-7.7 -2.00637,-18.275 -2.50944,-23.5 -0.50307,-5.225 -1.38179,-13.55 -1.95271,-18.5 -0.57092,-4.95 -1.47561,-13.05 -2.01043,-18 -1.56948,-14.52622 -3.97167,-36.9489 -5.57089,-52 -0.81814,-7.7 -1.9013,-17.15 -2.40703,-21 -1.72197,-13.10905 -2.18702,-23.95117 -1.14492,-26.69212 1.977,-5.1999 2.53947,-5.27021 46.46309,-5.80788 l 40.84604,-0.5 7.20618,-13 c 3.9634,-7.150001 8.34195,-15.025001 9.7301,-17.500001 1.38816,-2.475 6.0579,-10.9888 10.37721,-18.919555 4.31931,-7.930756 9.16916,-15.918256 10.77746,-17.75 l 2.92416,-3.330445 25.27978,0 25.27978,0 0.60297,2.25 c 0.98775,3.68577 0.7112,12.730303 -0.45593,14.911104 -1.0433,1.949427 -1.84342,2.016672 -20.25,1.701914 -10.54008,-0.180238 -19.68333,0.0019 -20.31834,0.404669 -0.63501,0.402807 -2.61662,3.319862 -4.40357,6.482344 -1.78696,3.162483 -4.14079,7.324969 -5.23074,9.249969 -9.45968,16.707132 -18.71113,33.949611 -18.71113,34.873061 0,0.81401 9.51835,1.12694 34.27749,1.12694 30.07139,0 34.56318,0.2001 36.60564,1.63069 2.87894,2.01649 5.32559,7.62756 4.63411,10.62773 -0.28415,1.23287 -0.96056,6.96658 -1.50314,12.74158 -0.54257,5.775 -1.68921,16.8 -2.54807,24.5 -0.85887,7.7 -1.97477,18.275 -2.47978,23.5 -0.50502,5.225 -1.36348,13.1 -1.90771,17.5 -0.54422,4.4 -1.44678,12.275 -2.00569,17.5 -0.55891,5.225 -1.71356,16.025 -2.56589,24 -0.85234,7.975 -2.20222,20.35 -2.99975,27.5 -0.79752,7.15 -1.94285,17.725 -2.54518,23.5 -0.60233,5.775 -1.51656,14.1 -2.03161,18.5 -0.51505,4.4 -1.35938,12.275 -1.87627,17.5 -0.5169,5.225 -1.66487,16.025 -2.55105,24 -0.88618,7.975 -1.97088,17.8937 -2.41043,22.04155 -0.8779,8.28433 -1.983,11.0678 -5.32291,13.40717 -1.94207,1.36027 -9.35958,1.54348 -60.24227,1.48789 -31.91512,-0.0349 -59.01643,-0.46164 -60.22513,-0.9484 z m 106.52822,-18.73821 c 0.49552,-0.9625 1.42516,-6.925 2.06586,-13.25 0.64071,-6.325 1.40042,-13.525 1.68824,-16 1.77821,-15.29072 3.56312,-31.86776 4.38411,-40.71679 0.52134,-5.61923 1.38668,-13.94423 1.92299,-18.5 0.5363,-4.55576 1.45097,-12.78321 2.03258,-18.28321 0.58162,-5.5 1.74601,-16.525 2.58754,-24.5 0.84153,-7.975 2.00612,-18.68611 2.58798,-23.80247 0.80827,-7.1072 0.77297,-9.64581 -0.14957,-10.75741 -1.03757,-1.25019 -10.09046,-1.41872 -64.32891,-1.19753 l -63.1214,0.25741 0.22215,9.73334 c 0.12219,5.35333 1.1451,17.72833 2.27314,27.5 1.12804,9.77166 2.48146,22.26666 3.00761,27.76666 0.52615,5.5 1.41837,14.275 1.98272,19.5 0.56435,5.225 1.45829,13.55 1.98653,18.5 1.17205,10.98287 3.51356,32.43916 5.488,50.28893 0.80847,7.30892 1.73723,13.72142 2.06391,14.25 0.36598,0.59218 18.21436,0.96107 46.49977,0.96107 42.70993,0 45.96852,-0.12183 46.80675,-1.75 z m 19.89285,-186.5 c 0.53258,-0.6875 1.72986,-8.675 2.66062,-17.75 0.93075,-9.075 2.19958,-20.92742 2.81961,-26.3387 0.94847,-8.27781 0.90275,-9.98086 -0.28817,-10.73469 -0.79875,-0.5056 -31.94058,-0.90266 -71.47436,-0.9113 -55.05866,-0.012 -70.43056,0.25648 -71.79485,1.25407 -1.53154,1.11989 -1.62282,2.09148 -0.77514,8.25 0.52847,3.83934 1.7177,15.08062 2.64275,24.98062 0.92505,9.9 2.0782,19.0125 2.56257,20.25 l 0.88066,2.25 65.899,0 c 51.53609,0 66.11004,-0.27244 66.86731,-1.25 z"
       id="path3343"
       inkscape:connector-curvature="0" />
    <path
       style="fill:#fdb94c"
       d="m 162.66568,394.6503 c -2.38597,-1.39235 -4.62299,-8.34135 -5.30049,-16.46526 -0.60745,-7.284 -1.44451,-15.07247 -3.97654,-37 -0.82562,-7.15 -2.18789,-19.75 -3.02725,-28 -0.83937,-8.25 -1.98516,-19.05 -2.54621,-24 -0.56105,-4.95 -2.13231,-19.35 -3.4917,-32 -5.08008,-47.27341 -5.62022,-52.30824 -7.027,-65.5 -2.99559,-28.09053 -3.63697,-33.80787 -5.02997,-44.83831 -0.78754,-6.23607 -1.43189,-14.24402 -1.43189,-17.79545 0,-5.5224 0.35532,-6.81247 2.45455,-8.91169 l 2.45454,-2.45455 40.35433,0 c 30.80048,0 40.71668,-0.29593 41.8849,-1.25 0.84183,-0.6875 6.83827,-10.925 13.32544,-22.750001 22.93014,-41.797734 24.78339,-44.855156 28.17737,-46.485921 4.47187,-2.148678 47.50007,-2.241751 49.2721,-0.106579 0.72425,0.872668 1.05577,4.197559 0.87245,8.75 l -0.29568,7.3425 -20.11336,0.27027 c -17.6046,0.23656 -20.30178,0.486021 -21.62399,2 -1.87909,2.151615 -27.76265,48.872261 -27.76265,50.112461 0,1.88343 4.0763,2.11727 36.90747,2.11727 l 33.7439,0 2.42432,2.58671 c 2.21053,2.35861 2.40218,3.30655 2.17333,10.75 -0.13803,4.48981 -0.70318,11.31329 -1.25588,15.16329 -0.5527,3.85 -1.44559,11.275 -1.98419,16.5 -0.5386,5.225 -1.67049,15.8 -2.51531,23.5 -0.84482,7.7 -1.9527,18.275 -2.46195,23.5 -0.50924,5.225 -1.40526,13.55 -1.99114,18.5 -0.58588,4.95 -1.52902,13.5 -2.09585,19 -0.56684,5.5 -1.68629,15.9625 -2.48766,23.25 -2.30526,20.96357 -4.3594,39.91526 -5.50068,50.75 -0.57935,5.5 -1.69373,15.625 -2.4764,22.5 -0.78267,6.875 -2.14019,19.475 -3.0167,28 -0.87652,8.525 -2.07634,16.75542 -2.66628,18.28983 -2.27657,5.92127 0.0626,5.71293 -63.76949,5.67976 -36.10629,-0.0188 -59.16684,-0.40351 -60.19644,-1.00433 z M 269.6227,378.43504 c 1.53187,-1.85374 2.6243,-9.86566 6.23804,-45.75 0.4708,-4.675 1.58605,-15.25 2.47833,-23.5 0.89229,-8.25 2.00215,-19.05 2.46636,-24 0.46421,-4.95 1.31652,-12.825 1.89404,-17.5 0.57751,-4.675 1.75183,-15.7 2.60959,-24.5 0.85777,-8.8 2.02077,-19.17658 2.58445,-23.05907 1.16266,-8.00804 0.72604,-9.99623 -2.37805,-10.82873 -2.96736,-0.79583 -122.57378,-0.74736 -125.55623,0.0509 -2.33609,0.62525 -2.36435,0.77804 -1.70812,9.23634 0.71015,9.15335 2.64318,28.01124 5.13557,50.10058 1.91585,16.97967 3.04727,27.55541 4.97472,46.5 0.83936,8.25 2.17071,20.625 2.95856,27.5 0.78785,6.875 1.9655,17.45 2.617,23.5 0.6515,6.05 1.6251,11.5625 2.16356,12.25 0.75776,0.96752 11.31882,1.25 46.73411,1.25 35.38651,0 45.98919,-0.28326 46.78807,-1.25 z m 21.0674,-188 c 0.44329,-1.2375 1.35101,-7.875 2.01717,-14.75 0.66616,-6.875 1.90618,-18.26173 2.7556,-25.30385 0.84942,-7.04212 1.29469,-13.45462 0.98947,-14.25 -0.47703,-1.24311 -10.72124,-1.44615 -72.96388,-1.44615 -56.71018,0 -72.63265,0.27101 -73.44076,1.25 -0.71255,0.86321 -0.61691,4.65371 0.30907,12.25 0.73749,6.05 2.08535,17.975 2.99523,26.5 0.90989,8.525 2.1208,16.0625 2.69093,16.75 0.81023,0.97704 15.53657,1.25 67.4389,1.25 l 66.4023,0 0.80597,-2.25 z"
       id="path3341"
       inkscape:connector-curvature="0" />
    <path
       style="fill:#fdad2c"
       d="m 164.0402,394.63744 c -3.40397,-1.36612 -5.18347,-6.80918 -6.26852,-19.17391 -0.53409,-6.08621 -1.19313,-12.01368 -1.46454,-13.17216 -0.27141,-1.15848 -0.92539,-6.83133 -1.45329,-12.60633 -1.62138,-17.73732 -2.90455,-30.13871 -3.98361,-38.5 -0.56783,-4.4 -1.71592,-14.75 -2.55131,-23 -0.83538,-8.25 -1.94712,-18.825 -2.47053,-23.5 -3.23717,-28.91395 -4.12257,-36.98424 -5.48559,-50 -0.83515,-7.975 -1.95398,-18.325 -2.48629,-23 -0.53231,-4.675 -1.67437,-15.25 -2.53792,-23.5 -0.86354,-8.25 -2.00817,-18.375 -2.54363,-22.5 -0.53545,-4.125 -0.97058,-11.17984 -0.96695,-15.67742 0.0106,-13.13408 -2.98651,-12.31942 45.39147,-12.33789 22.06333,-0.008 40.60357,-0.34592 41.20055,-0.75 0.59697,-0.40408 2.44699,-3.20969 4.11116,-6.23469 24.1496,-43.897464 33.78214,-60.798178 35.47929,-62.250001 1.82721,-1.563085 4.65501,-1.75 26.47537,-1.75 l 24.42965,0 -0.29044,8.25 -0.29044,8.25 -19.5,0 c -10.725,0 -20.01359,0.33383 -20.64131,0.741845 -0.62773,0.408015 -5.85476,9.183015 -11.61564,19.5 -16.6635,29.842166 -17.89082,32.210046 -17.24058,33.262156 0.38949,0.63021 13.2926,0.996 35.13347,0.996 l 34.51791,0 3.05604,3.05605 3.05605,3.05605 -0.66815,8.69395 c -0.36748,4.78167 -1.08471,12.29395 -1.59384,16.69395 -0.85527,7.39132 -3.14261,28.46444 -4.50455,41.5 -0.31604,3.025 -1.24025,11.35 -2.0538,18.5 -0.81354,7.15 -1.89046,17.74755 -2.39316,23.55012 -0.5027,5.80257 -1.17056,11.65257 -1.48414,13 -0.31357,1.34743 -1.00645,6.94988 -1.53974,12.44988 -0.53328,5.5 -1.6308,16.075 -2.43893,23.5 -0.80814,7.425 -1.73749,16.425 -2.06524,20 -0.32775,3.575 -1.23603,11.9 -2.01842,18.5 -1.47989,12.484 -2.38889,20.77785 -5.04158,46 -2.57822,24.51407 -2.38543,23.57488 -5.47312,26.66258 l -2.83742,2.83742 -57.32693,-0.0634 c -32.43695,-0.0359 -58.32311,-0.46318 -59.62135,-0.98421 z m 106.04733,-15.7024 c 0.98843,-1.10678 1.96643,-5.42553 2.66084,-11.75 2.20634,-20.09476 3.0751,-28.31079 4.59966,-43.5 0.85567,-8.525 2.19641,-20.9 2.97943,-27.5 0.78302,-6.6 1.91721,-17.175 2.52044,-23.5 0.60322,-6.325 1.72386,-17.125 2.4903,-24 3.14214,-28.18492 3.72809,-34.61636 3.37098,-37 l -0.37455,-2.5 -65.2786,-0.25725 c -59.29053,-0.23365 -65.3354,-0.10925 -65.89773,1.35616 -0.567,1.47757 -0.10454,6.54006 2.7564,30.17403 0.5508,4.55012 1.42882,12.87512 1.95116,18.5 0.52233,5.62488 1.64141,16.52706 2.48683,24.22706 0.84542,7.7 1.95447,18.05 2.46455,23 0.51009,4.95 1.63605,15.75 2.50213,24 0.86608,8.25 2.02537,19.5 2.57621,25 1.41758,14.15426 2.87233,22.71468 4.11445,24.21134 0.84417,1.01716 10.70238,1.28866 46.79206,1.28866 42.28325,0 45.84013,-0.13164 47.28544,-1.75 z M 290.2632,192.11361 c 0.86429,-0.86428 1.57143,-2.77024 1.57143,-4.23545 0,-1.46521 0.64123,-7.39556 1.42496,-13.17857 2.31546,-17.08537 3.8159,-33.26452 3.4327,-37.01455 l -0.35766,-3.5 -72.38957,-0.25661 c -52.64507,-0.18663 -72.76063,0.0513 -73.75,0.87244 -1.62445,1.34818 -1.6983,4.5898 -0.3493,15.33227 3.27367,26.0692 3.98887,32.57798 3.98887,36.30146 0,7.65345 -3.87153,7.25044 69.65108,7.25044 57.94491,0 65.38105,-0.17499 66.77749,-1.57143 z"
       id="path3339"
       inkscape:connector-curvature="0" />
    <path
       style="fill:#fda211"
       d="m 162.64162,392.93504 c -0.82665,-0.9625 -1.82037,-2.63678 -2.20827,-3.72063 -0.77038,-2.15253 -3.14749,-22.63147 -4.64644,-40.02937 -0.52125,-6.05 -1.21046,-11.675 -1.53158,-12.5 -0.32112,-0.825 -0.99548,-6.675 -1.49858,-13 -0.5031,-6.325 -1.59405,-17.125 -2.42434,-24 -0.83029,-6.875 -1.93828,-17.80025 -2.46219,-24.27833 -0.52392,-6.47808 -1.2292,-12.22592 -1.5673,-12.77297 -0.33809,-0.54705 -1.01499,-5.8218 -1.50422,-11.72167 -1.65416,-19.94841 -3.01042,-32.70621 -3.98936,-37.52625 -0.53609,-2.63957 -0.96531,-6.91457 -0.95383,-9.5 0.0115,-2.58543 -0.69285,-10.32578 -1.56519,-17.20078 -0.87234,-6.875 -1.98135,-16.1 -2.46446,-20.5 -0.48312,-4.4 -1.40361,-12.275 -2.04552,-17.5 -0.64191,-5.225 -1.38877,-12.96149 -1.65967,-17.19219 -0.46358,-7.23958 -0.34206,-7.8427 2.06525,-10.25 l 2.5578,-2.55781 40.35433,0 c 30.79846,0 40.71766,-0.296 41.88869,-1.25 0.84391,-0.6875 7.07625,-11.375 13.84966,-23.750001 6.77341,-12.375 14.71895,-26.7295 17.65676,-31.89889 2.93781,-5.169389 5.34147,-9.730135 5.34147,-10.13499 0,-0.404855 1.12161,-1.471007 2.49247,-2.369227 2.16064,-1.41571 5.65527,-1.597432 26.25,-1.365009 l 23.75753,0.268116 0,7 0,7 -19.84368,0 -19.84369,0 -2.28803,2.868075 c -1.25841,1.577441 -3.24454,4.727441 -4.41362,7 -1.16907,2.272559 -3.52135,6.606925 -5.22729,9.631925 -5.05724,8.967583 -7.84141,13.947582 -13.6499,24.415371 -5.18385,9.3421 -5.39643,9.99254 -3.67675,11.25 1.4375,1.05113 9.07612,1.33463 35.95978,1.33463 l 34.13455,0 2.17432,2.31445 c 1.87882,1.99992 2.17355,3.46083 2.16873,10.75 -0.003,4.63955 -0.46886,10.10365 -1.0351,12.14243 -0.56623,2.03879 -1.43523,8.56379 -1.93109,14.5 -1.60651,19.2322 -3.05739,32.68766 -4.05352,37.59234 -0.53609,2.63957 -0.98571,7.81457 -0.99916,11.5 -0.0134,3.68543 -0.46117,8.59308 -0.99495,10.90589 -0.94786,4.10698 -2.17022,15.10912 -4.03245,36.29489 -0.50762,5.775 -1.35902,12.525 -1.892,15 -0.53298,2.475 -0.98865,7.29035 -1.0126,10.70078 -0.0239,3.41043 -0.49477,8.36043 -1.04626,11 -1.03394,4.94872 -2.54926,19.23835 -3.91281,36.89819 -0.42887,5.55443 -1.06625,10.56252 -1.41641,11.12909 -0.35016,0.56656 -1.08968,6.37203 -1.64338,12.90103 -2.69243,31.74801 -3.39305,36.29819 -6.12355,39.76946 l -2.0463,2.60145 -58.77243,0 c -54.73451,0 -58.8757,-0.12023 -60.27542,-1.75 z m 108.75811,-14.70901 c 1.11761,-1.7057 1.86156,-6.28326 2.42845,-14.94242 0.44948,-6.86587 1.13548,-12.99832 1.52443,-13.62766 0.38895,-0.62934 1.08698,-6.16775 1.55117,-12.30758 0.46419,-6.13983 1.57749,-17.46333 2.474,-25.16333 0.89651,-7.7 1.98636,-18.275 2.4219,-23.5 0.43553,-5.225 1.31716,-14 1.95917,-19.5 0.64201,-5.5 1.58091,-13.6 2.08645,-18 0.50554,-4.4 1.44287,-12.5 2.08295,-18 2.30701,-19.82317 2.34785,-22.70402 0.34259,-24.1703 -2.69503,-1.97066 -128.19195,-1.96001 -130.88761,0.0111 -1.97356,1.44311 -1.99144,0.43541 0.35766,20.1592 0.58955,4.95 1.53725,13.5 2.106,19 0.56875,5.5 1.54051,13.825 2.15946,18.5 0.61895,4.675 1.44101,12.775 1.8268,18 1.08558,14.7028 2.9538,32.00185 4.02815,37.29922 0.53533,2.63957 0.98114,7.58957 0.99069,11 0.01,3.41043 0.68455,9.35061 1.5,13.20041 0.81545,3.84979 1.48264,9.66293 1.48264,12.91808 0,7.04416 1.8406,18.5752 3.24546,20.33229 0.77395,0.96799 11.57002,1.25 47.85393,1.25 l 46.8545,0 1.61121,-2.45901 z M 290.3621,193.28862 c 2.01008,-1.46981 2.25186,-2.92755 4.41252,-26.60358 0.57722,-6.325 1.48225,-13.525 2.0112,-16 1.35363,-6.33388 1.27226,-15.37655 -0.15119,-16.8 -0.91118,-0.91118 -18.58413,-1.2 -73.42857,-1.2 -80.40569,0 -75.41399,-0.45203 -75.32788,6.82143 0.0239,2.02321 0.47758,5.70357 1.00806,8.17857 0.53047,2.475 1.41454,9.45 1.96458,15.5 0.55005,6.05 1.34453,14.76084 1.76551,19.35743 1.22514,13.37693 -5.95562,12.14257 70.63795,12.14257 54.2262,0 65.51947,-0.235 67.10782,-1.39642 z"
       id="path3337"
       inkscape:connector-curvature="0" />
    <path
       style="fill:#fd9c00"
       d="m 163.06356,392.16665 c -0.69909,-0.79327 -1.52306,-2.91365 -1.83104,-4.71196 -0.30798,-1.79831 -0.95557,-4.16965 -1.43909,-5.26965 -0.48351,-1.1 -1.09972,-6.725 -1.36935,-12.5 -0.26963,-5.775 -1.19923,-16.35 -2.06579,-23.5 -0.86656,-7.15 -1.9507,-18.00323 -2.40919,-24.11829 -0.4585,-6.11506 -1.23043,-11.74006 -1.71539,-12.5 -0.48497,-0.75994 -1.20297,-6.33171 -1.59555,-12.38171 -1.29606,-19.97332 -2.83826,-34.69637 -3.82808,-36.54588 -0.5365,-1.00245 -0.97545,-5.20507 -0.97545,-9.33916 0,-4.13408 -0.46651,-9.69177 -1.03669,-12.35042 -1.01911,-4.75197 -2.08265,-15.15626 -3.94754,-38.61774 -0.5182,-6.51926 -1.36675,-12.36926 -1.88567,-13 -0.51891,-0.63074 -1.19486,-5.8718 -1.50211,-11.6468 -0.79655,-14.97226 -2.99537,-35.71998 -3.87799,-36.59219 -0.4125,-0.40763 -0.75,-3.9627 -0.75,-7.90016 0,-6.19027 0.31319,-7.45325 2.31445,-9.33334 2.29051,-2.15181 2.7173,-2.17534 41.25,-2.27399 21.41455,-0.0548 40.03136,-0.40572 41.37068,-0.77977 2.31593,-0.6468 3.39839,-2.0403 7.86155,-10.12055 1.06328,-1.925 2.8205,-5.075 3.90493,-7 1.08443,-1.925001 3.3952,-6.087501 5.13504,-9.250001 1.73984,-3.1625 4.58686,-8.3375 6.3267,-11.5 1.73984,-3.1625 3.91633,-7.1 4.83665,-8.75 0.92032,-1.65 3.16774,-5.7 4.99427,-9 5.44261,-9.833201 7.86586,-13.354776 9.96129,-14.476215 1.27628,-0.683048 9.93764,-0.966111 24.2646,-0.792996 l 22.27984,0.269211 0,7 0,7 -14,-0.126542 c -7.7,-0.0696 -15.68628,-0.456188 -17.74729,-0.859089 -7.72659,-1.510451 -8.97278,-0.25283 -19.77375,19.955042 -2.34278,4.383176 -5.02295,9.333176 -5.95593,11 -0.93298,1.666824 -3.19077,5.730589 -5.0173,9.03059 -1.82653,3.3 -4.40164,7.7207 -5.72246,9.82377 -2.982,4.74807 -2.63128,6.97412 1.22894,7.80021 1.64328,0.35167 17.88055,0.69263 36.0828,0.75771 39.47771,0.14113 36.40499,-0.97979 36.40499,13.28038 0,5.22753 -0.3375,9.83875 -0.75,10.24716 -0.86075,0.85222 -2.97691,20.35974 -3.80662,35.09077 -0.30978,5.5 -1.01887,11.18441 -1.57576,12.63202 -0.55688,1.4476 -1.4198,7.7476 -1.91759,14 -1.8275,22.95413 -2.90053,33.40992 -3.91334,38.13252 -0.57018,2.65865 -1.03669,8.32175 -1.03669,12.58468 0,4.26293 -0.42427,8.17828 -0.94282,8.70078 -0.87149,0.87812 -1.63395,7.86579 -4.03178,36.95 -0.49879,6.05 -1.36396,13.025 -1.92259,15.5 -0.55864,2.475 -1.03531,7.76861 -1.05926,11.76357 -0.0239,3.99496 -0.47957,8.04496 -1.01248,9 -0.93022,1.66707 -2.24954,13.87368 -3.91651,36.23643 -0.78378,10.51455 -2.01422,15.96925 -4.19499,18.59692 -1.76595,2.12783 -117.81235,2.01603 -119.69064,-0.11531 z m 109.28387,-13.14149 c 1.29131,-1.97078 1.87241,-5.53305 2.24299,-13.75 0.27509,-6.09957 0.85924,-11.54605 1.2981,-12.10331 0.43886,-0.55725 1.12079,-6.53307 1.51541,-13.2796 0.39462,-6.74653 1.10296,-12.50466 1.57409,-12.79583 0.47114,-0.29118 0.85661,-4.97356 0.85661,-10.4053 0,-5.43173 0.49367,-11.14268 1.09705,-12.69098 0.60338,-1.54831 1.31361,-7.5401 1.57829,-13.3151 0.26468,-5.775 0.76177,-11.175 1.10464,-12 0.68836,-1.6563 2.7626,-20.42451 4.14446,-37.5 0.48961,-6.05 1.35507,-13.25 1.92326,-16 1.31421,-6.36067 1.40058,-14.55861 0.17384,-16.5 -0.82256,-1.30175 -9.18,-1.53999 -63.23469,-1.80258 -34.25777,-0.16641 -64.19763,-0.0266 -66.53303,0.3107 -5.28753,0.76368 -6.0569,2.96289 -4.33241,12.38397 0.66525,3.63435 1.61822,11.55791 2.11771,17.60791 0.49949,6.05 1.61215,17.075 2.47258,24.5 0.86043,7.425 1.95439,18.76106 2.43102,25.19124 0.47664,6.43018 1.24312,12.28018 1.70329,13 0.46017,0.71982 1.15771,6.25876 1.55009,12.30876 1.26242,19.46511 2.83533,34.94705 3.75906,37 0.49494,1.1 1.12142,6.725 1.39217,12.5 0.27076,5.775 1.018,12.075 1.66055,14 0.64254,1.925 1.33951,4.0625 1.54881,4.75 0.29753,0.97731 10.83344,1.25 48.29692,1.25 l 47.91637,0 1.74282,-2.65988 z m 19.36261,-184.84012 c 1.18344,-1.2147 3.10128,-13.45253 4.23128,-27 0.45876,-5.5 1.37405,-14.60285 2.03399,-20.22857 0.90686,-7.73065 0.91932,-10.84432 0.051,-12.75 l -1.1488,-2.52143 -73.49839,0 -73.49838,0 -1.64379,2.50873 c -1.45006,2.21307 -1.50533,3.53889 -0.469,11.25 0.64613,4.8077 1.54484,13.24127 1.99715,18.74127 1.00774,12.25426 3.01477,26.48573 4.01607,28.47726 0.40851,0.81249 1.82515,1.78794 3.1481,2.16766 3.91132,1.12266 133.66356,0.5018 134.78077,-0.64492 z"
       id="path3335"
       inkscape:connector-curvature="0" />
  </g>
</svg>
