<?xml version="1.0" encoding="UTF-8" standalone="no"?>
<!-- Created with Inkscape (http://www.inkscape.org/) -->

<svg
   xmlns:dc="http://purl.org/dc/elements/1.1/"
   xmlns:cc="http://creativecommons.org/ns#"
   xmlns:rdf="http://www.w3.org/1999/02/22-rdf-syntax-ns#"
   xmlns:svg="http://www.w3.org/2000/svg"
   xmlns="http://www.w3.org/2000/svg"
   xmlns:xlink="http://www.w3.org/1999/xlink"
   xmlns:sodipodi="http://sodipodi.sourceforge.net/DTD/sodipodi-0.dtd"
   xmlns:inkscape="http://www.inkscape.org/namespaces/inkscape"
   width="2500"
   height="3300"
   id="svg3506"
   version="1.1"
   inkscape:version="0.91 r13725"
   sodipodi:docname="powered-by.svg"
   inkscape:export-filename="/home/wmoreno/Imágenes/jugando fedora next/Powered-By.png"
   inkscape:export-xdpi="57.049999"
   inkscape:export-ydpi="57.049999">
  <defs
     id="defs3508">
    <linearGradient
       inkscape:collect="always"
       id="linearGradient4361">
      <stop
         style="stop-color:#262577;stop-opacity:1;"
         offset="0"
         id="stop4363" />
      <stop
         style="stop-color:#262577;stop-opacity:0;"
         offset="1"
         id="stop4365" />
    </linearGradient>
    <inkscape:perspective
       sodipodi:type="inkscape:persp3d"
       inkscape:vp_x="0 : 526.18109 : 1"
       inkscape:vp_y="0 : 1000 : 0"
       inkscape:vp_z="744.09448 : 526.18109 : 1"
       inkscape:persp3d-origin="372.04724 : 350.78739 : 1"
       id="perspective28" />
    <inkscape:perspective
       id="perspective25"
       inkscape:persp3d-origin="32 : 21.333333 : 1"
       inkscape:vp_z="64 : 32 : 1"
       inkscape:vp_y="0 : 1000 : 0"
       inkscape:vp_x="0 : 32 : 1"
       sodipodi:type="inkscape:persp3d" />
    <inkscape:perspective
       id="perspective3527"
       inkscape:persp3d-origin="0.5 : 0.33333333 : 1"
       inkscape:vp_z="1 : 0.5 : 1"
       inkscape:vp_y="0 : 1000 : 0"
       inkscape:vp_x="0 : 0.5 : 1"
       sodipodi:type="inkscape:persp3d" />
    <clipPath
       clipPathUnits="userSpaceOnUse"
       id="clipPath10671">
      <path
         inkscape:connector-curvature="0"
         id="path10673"
         d="m 7471.841,7.3370103 c -6.8568,-5.053145 -15.79,-4.4865494 -20.0329,1.2707669 l -32.9836,44.7568998 c -4.2429,5.757316 -2.1416,14.461231 4.7152,19.514376 6.857,5.053303 15.7926,4.483034 20.0355,-1.2743 l 32.9836,-44.756882 c 4.2429,-5.757335 2.1392,-14.457557 -4.7178,-19.5108607 z m 30.9361,22.7983747 c -6.8568,-5.053145 -15.79,-4.48646 -20.0328,1.270767 l -32.9837,44.75699 c -4.2428,5.757226 -2.1416,14.461213 4.7152,19.514358 6.8568,5.05316 15.7926,4.48296 20.0355,-1.274373 l 32.9836,-44.756882 c 4.2429,-5.757244 2.1391,-14.457715 -4.7178,-19.51086 z m 30.9361,22.798464 c -6.8568,-5.053145 -15.794,-4.489574 -20.0369,1.267761 l -32.9837,44.756882 c -4.2428,5.757338 -2.1375,14.464258 4.7193,19.517398 6.8569,5.05315 15.7927,4.48295 20.0355,-1.2743 l 32.9837,-44.756971 c 4.2428,-5.757244 2.1389,-14.457625 -4.7179,-19.51077 z"
         style="fill:#a07cbc;fill-opacity:1;stroke:none"
         sodipodi:nodetypes="sssssssssssssssssssss" />
    </clipPath>
    <clipPath
       clipPathUnits="userSpaceOnUse"
       id="clipPath10667">
      <path
         inkscape:connector-curvature="0"
         id="path10669"
         d="m 6926.3942,-16.111198 c -6.0323,-2.2e-5 -10.8899,3.303726 -10.8899,7.4061379 l 0,36.2854281 c 0,4.102412 4.8576,7.401908 10.8899,7.401908 l 108.883,0 c 6.0324,0 10.8903,-3.299496 10.8903,-7.401908 l 0,-36.2854281 c 0,-4.1024119 -4.8579,-7.4061379 -10.8903,-7.4061379 z m 0,57.153809 c -6.0323,0 -10.8899,3.303748 -10.8899,7.40616 l 0,7.406138 c 0,4.102412 4.8576,7.401886 10.8899,7.401886 l 108.883,0 c 6.0324,0 10.8903,-3.299474 10.8903,-7.401886 l 0,-7.406138 c 0,-4.102412 -4.8579,-7.40616 -10.8903,-7.40616 z"
         style="fill:#7bcf3e;fill-opacity:1;stroke:none"
         sodipodi:nodetypes="ssssssssssssssssss" />
    </clipPath>
    <clipPath
       clipPathUnits="userSpaceOnUse"
       id="clipPath10663">
      <path
         inkscape:connector-curvature="0"
         id="path10665"
         d="m -303.59174,546.61805 c -3.05047,2.21122 -3.92372,6.97949 -1.95763,10.68929 l 3.54735,6.69352 c 1.96607,3.70979 6.00596,4.91668 9.05643,2.70546 l 55.06054,-39.91221 c 3.0503,-2.21111 3.9237,-6.97951 1.95763,-10.68929 l -3.54736,-6.69354 c -1.96609,-3.70981 -6.00612,-4.91654 -9.05642,-2.70544 z m 13.55057,25.56862 c -3.05047,2.21122 -3.9237,6.97952 -1.95763,10.68931 l 3.54939,6.69736 c 1.96609,3.70981 6.00393,4.91284 9.0544,2.70162 l 55.06052,-39.91224 c 3.05032,-2.21108 3.92576,-6.97563 1.95968,-10.68542 l -3.5494,-6.69738 c -1.96608,-3.70981 -6.00612,-4.91656 -9.05643,-2.70546 z m 13.55057,25.56864 c -3.05047,2.21122 -3.92371,6.97948 -1.95762,10.68931 l 3.54939,6.69736 c 1.96608,3.70981 6.00596,4.91668 9.05642,2.70544 l 55.06055,-39.91219 c 3.05029,-2.21113 3.9237,-6.97951 1.95761,-10.68933 l -3.54938,-6.69735 c -1.96608,-3.7098 -6.00612,-4.91655 -9.05643,-2.70545 z"
         style="fill:#e59728;fill-opacity:1;stroke:none"
         sodipodi:nodetypes="sssssssssssssssssssssssssss" />
    </clipPath>
    <clipPath
       id="clipPath9886"
       clipPathUnits="userSpaceOnUse">
      <path
         inkscape:connector-curvature="0"
         id="path9888"
         d="m 884.21875,1088 c -21.33639,0 -42.68945,8.1581 -58.96875,24.4375 -32.5681,32.568 -32.568,85.3695 0,117.9375 32.553,32.5529 85.33445,32.5555 117.90625,0.031 L 972.5625,1201 l 29.4063,29.4062 c 32.5717,32.5243 85.3532,32.5217 117.9062,-0.031 32.569,-32.568 32.5681,-85.3695 0,-117.9375 -32.5586,-32.5587 -85.3342,-32.5764 -117.9062,-0.031 l -29.4063,29.4063 -29.40625,-29.4063 C 926.8702,1096.1337 905.55514,1087.9972 884.21875,1088 z"
         style="fill:#294172;fill-opacity:1" />
    </clipPath>
    <clipPath
       id="clipPath16538"
       clipPathUnits="userSpaceOnUse">
      <path
         sodipodi:nodetypes="ccccccccc"
         inkscape:connector-curvature="0"
         id="path16540"
         d="m 115.18419,842.208 c 1.5039,7.2666 0.70029,14.7276 0.90506,22.0953 -0.0899,4.8834 0.19231,9.7907 -0.16524,14.6569 -0.76987,4.4595 -5.40538,6.9149 -9.6359,6.3759 -20.62218,-0.03 -64.16843,0.06 -84.78939,-0.047 -15.89009,-0.5271 -30.24891,-13.2076 -32.78352,-28.8942 -2.97133,-15.1237 5.39143,-27.4681 19.36883,-33.9416 6.14924,-3.1067 66.50982,0.1785 77.63789,-0.7953 11.12806,-0.9738 26.12618,4.9926 29.46227,20.55 z"
         style="fill:#5484c6;fill-opacity:1" />
    </clipPath>
    <clipPath
       id="clipPath16453"
       clipPathUnits="userSpaceOnUse">
      <path
         inkscape:connector-curvature="0"
         id="path16455"
         d="m 246.3125,1052.4375 c -7.23705,0.2076 -14.45169,1.6138 -20.96875,4.9063 -19.75131,9.1477 -31.57376,32.2538 -27.375,53.625 0.64754,4.0075 1.84613,7.8777 3.5,11.5312 -6.4395,0 -16.90215,0.01 -21.15625,0 -5.6745,-0.7231 -11.90486,2.5807 -12.9375,8.5625 -0.47959,6.5273 -0.0981,13.106 -0.21875,19.6563 0.27465,9.8825 -0.79846,19.8782 1.21875,29.625 4.47479,20.8676 24.60717,36.9314 45.96875,36.5312 l 94.78125,-0.1875 c 9.08325,0.635 18.50187,-0.3017 26.75,-4.4687 18.74823,-8.6831 29.98553,-30.6205 26,-50.9063 -0.52964,-3.278 -1.47144,-6.4329 -2.71875,-9.4687 2.79453,0 7.71548,0 10.0625,0 5.9781,0.7617 12.53711,-2.6983 13.625,-9 0.50525,-6.8765 0.0917,-13.8182 0.21875,-20.7188 -0.28935,-10.4113 0.84389,-20.9504 -1.28125,-31.2187 -4.71419,-21.9842 -25.90178,-38.8905 -48.40625,-38.4688 l -79.84375,0.1875 c -2.39231,-0.1672 -4.8064,-0.2567 -7.21875,-0.1875 z"
         style="fill:#3c6eb4;fill-opacity:1" />
    </clipPath>
    <clipPath
       id="clipPath14832"
       clipPathUnits="userSpaceOnUse">
      <path
         inkscape:connector-curvature="0"
         style="fill:#6892cd;fill-opacity:1"
         d="m 121.78125,792.9375 c -2.5301,0.0377 -5.05427,0.28846 -7.5625,0.78125 -19.86822,3.21027 -36.0842,20.73312 -38.125,40.65625 -7.035805,-4.07036 -15.464392,-5.77238 -23.53125,-4.1875 -15.443566,2.49535 -27.918512,16.63731 -28.4375,32.28125 -0.10566,20.30153 -0.0014,60.60351 -0.03125,80.90625 -0.53065,4.16499 1.89075,8.7108 6.28125,9.46875 4.790912,0.35201 9.59856,0.0678 14.40625,0.15625 7.253608,-0.20158 14.596007,0.60559 21.75,-0.875 3.963841,-0.84999 7.688995,-2.48275 11.03125,-4.6875 1.464626,2.36688 3.760305,4.14553 6.71875,4.65625 6.4565,0.47439 12.958387,0.0994 19.4375,0.21875 9.77538,-0.27167 19.67137,0.80784 29.3125,-1.1875 8.54499,-1.83236 16.2795,-6.31222 22.375,-12.4375 4.09341,7.01552 10.99591,12.43318 19.03125,14.15625 6.13937,1.27062 12.43139,0.577 18.65625,0.75 4.12582,-0.076 8.29483,0.17708 12.40625,-0.125 3.76781,-0.65044 5.8304,-4.58197 5.375,-8.15625 -0.0256,-17.42325 0.0594,-54.82778 -0.0312,-72.25 -0.44538,-13.42519 -11.153,-25.57732 -24.40625,-27.71875 -5.89681,-1.15855 -12.02244,-0.25788 -17.4375,2.1875 l 0,-1.625 c 0.62819,-8.98476 -0.31561,-18.31006 -4.4375,-26.46875 -7.51533,-16.22683 -25.07054,-26.76374 -42.78125,-26.5 z"
         id="path14834" />
    </clipPath>
    <clipPath
       id="clipPath14836"
       clipPathUnits="userSpaceOnUse">
      <path
         inkscape:connector-curvature="0"
         id="path14838"
         d="m 121.78125,792.9375 c -2.5301,0.0377 -5.05427,0.28846 -7.5625,0.78125 -19.86822,3.21027 -36.0842,20.73312 -38.125,40.65625 -7.035805,-4.07036 -15.464392,-5.77238 -23.53125,-4.1875 -15.443566,2.49535 -27.918512,16.63731 -28.4375,32.28125 -0.10566,20.30153 -0.0014,60.60351 -0.03125,80.90625 -0.53065,4.16499 1.89075,8.7108 6.28125,9.46875 4.790912,0.35201 9.59856,0.0678 14.40625,0.15625 7.253608,-0.20158 14.596007,0.60559 21.75,-0.875 3.963841,-0.84999 7.688995,-2.48275 11.03125,-4.6875 1.464626,2.36688 3.760305,4.14553 6.71875,4.65625 6.4565,0.47439 12.958387,0.0994 19.4375,0.21875 9.77538,-0.27167 19.67137,0.80784 29.3125,-1.1875 8.54499,-1.83236 16.2795,-6.31222 22.375,-12.4375 4.09341,7.01552 10.99591,12.43318 19.03125,14.15625 6.13937,1.27062 12.43139,0.577 18.65625,0.75 4.12582,-0.076 8.29483,0.17708 12.40625,-0.125 3.76781,-0.65044 5.8304,-4.58197 5.375,-8.15625 -0.0256,-17.42325 0.0594,-54.82778 -0.0312,-72.25 -0.44538,-13.42519 -11.153,-25.57732 -24.40625,-27.71875 -5.89681,-1.15855 -12.02244,-0.25788 -17.4375,2.1875 l 0,-1.625 c 0.62819,-8.98476 -0.31561,-18.31006 -4.4375,-26.46875 -7.51533,-16.22683 -25.07054,-26.76374 -42.78125,-26.5 z"
         style="fill:#6892cd;fill-opacity:1" />
    </clipPath>
    <clipPath
       id="clipPath14712"
       clipPathUnits="userSpaceOnUse">
      <path
         inkscape:connector-curvature="0"
         id="path14714"
         d="m 263.53125,667.25 c -25.42621,0 -46.57039,18.37306 -50.875,42.5625 -4.87216,-2.88858 -10.55028,-4.5625 -16.625,-4.5625 -18.04199,0 -32.6875,14.61426 -32.6875,32.65625 0,18.03676 14.61949,32.6805 32.65625,32.6875 l 25.21875,0 0.0312,0 c 4.0966,0 7.4271,-3.31229 7.4375,-7.40625 l 0,-6.125 c 9.18282,8.39115 21.3929,13.52603 34.8125,13.53125 l 39.875,0 0.0625,0 c 0.59144,0 1.18207,-0.0719 1.75,-0.15625 0.49815,0.087 1.00813,0.15625 1.53125,0.15625 l 0.0312,0 30.03125,0 c 21.48797,-0.008 38.90625,-17.44954 38.90625,-38.9375 0,-21.4942 -17.41204,-38.90625 -38.90625,-38.90625 -9.34324,0 -17.91688,3.29284 -24.625,8.78125 C 305.01551,681.55222 285.96364,667.25 263.53125,667.25 z"
         style="fill:#6892cd;fill-opacity:1" />
    </clipPath>
    <inkscape:perspective
       sodipodi:type="inkscape:persp3d"
       inkscape:vp_x="0 : 32 : 1"
       inkscape:vp_y="0 : 1000 : 0"
       inkscape:vp_z="64 : 32 : 1"
       inkscape:persp3d-origin="32 : 21.333333 : 1"
       id="perspective25-8" />
    <inkscape:perspective
       id="perspective28-6"
       inkscape:persp3d-origin="372.04724 : 350.78739 : 1"
       inkscape:vp_z="744.09448 : 526.18109 : 1"
       inkscape:vp_y="0 : 1000 : 0"
       inkscape:vp_x="0 : 526.18109 : 1"
       sodipodi:type="inkscape:persp3d" />
    <inkscape:perspective
       sodipodi:type="inkscape:persp3d"
       inkscape:vp_x="0 : 0.5 : 1"
       inkscape:vp_y="0 : 1000 : 0"
       inkscape:vp_z="1 : 0.5 : 1"
       inkscape:persp3d-origin="0.5 : 0.33333333 : 1"
       id="perspective3123" />
    <inkscape:perspective
       sodipodi:type="inkscape:persp3d"
       inkscape:vp_x="0 : 32 : 1"
       inkscape:vp_y="0 : 1000 : 0"
       inkscape:vp_z="64 : 32 : 1"
       inkscape:persp3d-origin="32 : 21.333333 : 1"
       id="perspective25-9" />
    <inkscape:perspective
       id="perspective28-5"
       inkscape:persp3d-origin="372.04724 : 350.78739 : 1"
       inkscape:vp_z="744.09448 : 526.18109 : 1"
       inkscape:vp_y="0 : 1000 : 0"
       inkscape:vp_x="0 : 526.18109 : 1"
       sodipodi:type="inkscape:persp3d" />
    <linearGradient
       id="linearGradient3937">
      <stop
         id="stop3939"
         offset="0"
         style="stop-color:#262577;stop-opacity:1;" />
      <stop
         id="stop3941"
         offset="1"
         style="stop-color:#262577;stop-opacity:0;" />
    </linearGradient>
    <linearGradient
       inkscape:collect="always"
       xlink:href="#linearGradient4361"
       id="linearGradient12231"
       gradientUnits="userSpaceOnUse"
       gradientTransform="matrix(7.9362432,0,0,7.7630567,6687.5051,-5086.8238)"
       x1="-607.58221"
       y1="402.57135"
       x2="-736.42963"
       y2="603.61774" />
  </defs>
  <sodipodi:namedview
     id="base"
     pagecolor="#ffffff"
     bordercolor="#666666"
     borderopacity="1.0"
     inkscape:pageopacity="0.0"
     inkscape:pageshadow="2"
     inkscape:zoom="0.062"
     inkscape:cx="-1119.334"
     inkscape:cy="-293.18818"
     inkscape:document-units="px"
     inkscape:current-layer="layer1"
     showgrid="false"
     inkscape:window-width="1366"
     inkscape:window-height="702"
     inkscape:window-x="0"
     inkscape:window-y="27"
     inkscape:window-maximized="1"
     inkscape:snap-global="false"
     showguides="true"
     inkscape:guide-bbox="true" />
  <metadata
     id="metadata3511">
    <rdf:RDF>
      <cc:Work
         rdf:about="">
        <dc:format>image/svg+xml</dc:format>
        <dc:type
           rdf:resource="http://purl.org/dc/dcmitype/StillImage" />
        <dc:title />
      </cc:Work>
    </rdf:RDF>
  </metadata>
  <g
     inkscape:label="Capa 1"
     inkscape:groupmode="layer"
     id="layer1"
     transform="translate(0,2247.6378)">
    <path
       inkscape:connector-curvature="0"
       sodipodi:nodetypes="ccccc"
       id="path9267"
       d="m 57.435403,-2021.1628 c 760.684057,-256.0823 1562.410997,-217.675 2389.139697,0 l 0,2838.36753 c -768.2443,201.82447 -1555.05625,270.45897 -2389.139697,0 l 0,-2838.36753 z"
       style="fill:url(#linearGradient12231);fill-opacity:1;stroke:none" />
    <path
       inkscape:connector-curvature="0"
       style="fill:#4d4d4d;fill-opacity:1;stroke:none"
       d="m 57.435403,-2021.1628 c 760.684057,-256.0823 1562.410997,-217.675 2389.139697,0 l 0,2838.36753 c -768.2443,201.82447 -1555.05625,270.45897 -2389.139697,0 l 0,-2838.36753 z"
       id="path9269"
       sodipodi:nodetypes="ccccc" />
    <path
       inkscape:connector-curvature="0"
       style="fill:#ffffff;fill-opacity:1;stroke:none"
       d="M 107.03692,-650.56579 C 827.78637,-1004.6931 1611.507,-1046.4764 2396.9736,-1062.9781 l 0,1859.8989 c -786.6859,217.2035 -1547.30685,192.19535 -2289.93668,0 l 0,-1447.48659 z"
       id="path9271"
       sodipodi:nodetypes="ccccc" />
    <g
       transform="matrix(4.0622875,0,0,3.9736394,-102.94016,-4346.8568)"
       style="font-style:normal;font-variant:normal;font-weight:normal;font-stretch:normal;font-size:40px;line-height:125%;font-family:Monospace;-inkscape-font-specification:Monospace;letter-spacing:0px;word-spacing:0px;fill:#ffffff;fill-opacity:1;stroke:none"
       id="g9273">
      <path
         d="m 68.82375,628.28563 0,45.11 7.995,0 0,-17.55 c 1.169999,0.065 2.275001,0.13 3.51,0.13 9.74999,0 21.645,-1.30001 21.645,-15.015 0,-12.41499 -11.960006,-12.675 -17.81,-12.675 l -15.34,0 m 7.995,7.345 5.85,0 c 5.849994,0 11.115,0.71501 11.115,6.24 0,6.23999 -6.175007,6.825 -13,6.825 -1.364999,0 -2.665001,-0.13 -3.965,-0.195 l 0,-12.87"
         style="font-weight:bold;font-size:65px;font-family:Cantarell;-inkscape-font-specification:'Cantarell Bold';fill:#ffffff"
         id="path9275"
         inkscape:connector-curvature="0" />
      <path
         d="m 124.56328,641.41563 c -10.07499,0 -16.965,6.43501 -16.965,16.64 0,10.00999 6.95501,15.99 16.445,15.99 9.94499,0 17.03,-6.43501 17.03,-16.9 0,-10.13999 -7.28001,-15.73 -16.51,-15.73 m -0.455,7.085 c 4.355,0 9.295,3.12001 9.295,9.555 0,5.46 -3.965,8.905 -8.775,8.905 -5.58999,0 -9.295,-4.355 -9.295,-9.75 0,-5.91499 4.55001,-8.71 8.775,-8.71"
         style="font-weight:bold;font-size:65px;font-family:Cantarell;-inkscape-font-specification:'Cantarell Bold';fill:#ffffff"
         id="path9277"
         inkscape:connector-curvature="0" />
      <path
         d="m 145.5207,642.06563 12.09,31.33 7.085,0 8.255,-22.555 7.345,22.555 7.15,0 13.26,-31.33 -8.385,0 -8.385,23.27 -7.475,-23.27 -7.02,0 -8.06,23.205 -7.475,-23.205 -8.385,0"
         style="font-weight:bold;font-size:65px;font-family:Cantarell;-inkscape-font-specification:'Cantarell Bold';fill:#ffffff"
         id="path9279"
         inkscape:connector-curvature="0" />
      <path
         d="m 232.61766,665.92063 c 0,0 -5.26501,1.105 -9.36,1.105 -7.41,0 -10.075,-2.795 -10.79,-5.59 l 22.49,0 0,-4.03 c 0,-6.62999 -3.96501,-15.99 -14.235,-15.99 -9.42499,0 -16.64,5.20001 -16.64,17.225 0,7.27999 3.57501,15.34 17.16,15.34 4.15999,0 6.955,-0.26 10.335,-1.105 l 1.04,-0.26 0,-6.695 m -12.48,-17.745 c 3.76999,0 7.02,2.40501 7.02,7.8 l -14.625,0 c 0,-3.9 2.275,-7.8 7.605,-7.8"
         style="font-weight:bold;font-size:65px;font-family:Cantarell;-inkscape-font-specification:'Cantarell Bold';fill:#ffffff"
         id="path9281"
         inkscape:connector-curvature="0" />
      <path
         d="m 247.92516,643.69063 -0.91,-1.625 -5.2,0 0,31.33 7.8,0 0,-23.4 c 2.20999,-0.975 4.745,-1.495 7.215,-1.495 1.75499,0 3.25,0.26 4.745,0.845 l 1.235,0.455 2.47,-6.5 -1.105,-0.52 c -2.08,-0.975 -4.29001,-1.365 -6.5,-1.365 -3.64,0 -7.02001,0.91 -9.75,2.275"
         style="font-weight:bold;font-size:65px;font-family:Cantarell;-inkscape-font-specification:'Cantarell Bold';fill:#ffffff"
         id="path9283"
         inkscape:connector-curvature="0" />
      <path
         d="m 297.10984,665.92063 c 0,0 -5.265,1.105 -9.36,1.105 -7.40999,0 -10.075,-2.795 -10.79,-5.59 l 22.49,0 0,-4.03 c 0,-6.62999 -3.96501,-15.99 -14.235,-15.99 -9.42499,0 -16.64,5.20001 -16.64,17.225 0,7.27999 3.57502,15.34 17.16,15.34 4.16,0 6.95501,-0.26 10.335,-1.105 l 1.04,-0.26 0,-6.695 m -12.48,-17.745 c 3.77,0 7.02,2.40501 7.02,7.8 l -14.625,0 c 0,-3.9 2.27501,-7.8 7.605,-7.8"
         style="font-weight:bold;font-size:65px;font-family:Cantarell;-inkscape-font-specification:'Cantarell Bold';fill:#ffffff"
         id="path9285"
         inkscape:connector-curvature="0" />
      <path
         d="m 305.13734,658.25063 c 0,11.89499 8.51501,15.795 15.665,15.795 2.73,0 5.98001,-0.585 9.035,-2.08 l 0.65,1.43 5.72,0 0,-45.045 -7.8,0 0,14.105 c -1.94999,-0.65 -4.16,-1.04 -6.695,-1.04 -9.42499,0 -16.575,5.85001 -16.575,16.835 m 17.485,8.905 c -3.89999,0 -9.75,-1.69001 -9.75,-9.685 0,-7.92999 5.85001,-9.36 9.685,-9.36 2.21,0 4.35501,0.455 5.85,0.91 l 0,17.03 c -1.49499,0.585 -3.575,1.105 -5.785,1.105"
         style="font-weight:bold;font-size:65px;font-family:Cantarell;-inkscape-font-specification:'Cantarell Bold';fill:#ffffff"
         id="path9287"
         inkscape:connector-curvature="0" />
      <path
         d="m 362.80758,628.28563 0,45.11 5.785,0 0.39,-1.04 c 2.145,0.91 5.005,1.69 8.19,1.69 9.68499,0 16.51,-6.24001 16.51,-16.705 0,-12.28499 -8.77501,-15.925 -15.6,-15.925 -2.795,0 -5.33,0.52 -7.475,1.365 l 0,-14.495 -7.8,0 m 13.39,20.02 c 3.89999,0 9.815,1.56001 9.815,9.88 0,7.53999 -5.78501,9.165 -9.685,9.165 -2.21,0 -4.29,-0.455 -5.72,-0.91 l 0,-17.095 c 2.015,-0.78 3.9,-1.04 5.59,-1.04"
         style="font-weight:bold;font-size:65px;font-family:Cantarell;-inkscape-font-specification:'Cantarell Bold';fill:#ffffff"
         id="path9289"
         inkscape:connector-curvature="0" />
      <path
         d="m 398.08938,642.06563 14.16999,31.59 -7.15,16.575 8.71,0 19.175,-48.165 -8.255,0 -8.385,24.05 -9.295,-24.05 -8.96999,0"
         style="font-weight:bold;font-size:65px;font-family:Cantarell;-inkscape-font-specification:'Cantarell Bold';fill:#ffffff"
         id="path9291"
         inkscape:connector-curvature="0" />
    </g>
    <g
       id="g3829"
       transform="matrix(0.16122378,0,0,-0.16122378,426.62011,853.57848)"
       style="fill:#000000;stroke:none">
      <path
         id="path3831"
         d="m 4004,10226 c -143,-35 -249,-153 -273,-306 -7,-41 -11,-340 -11,-802 l 0,-737 -782,-3 -783,-3 -60,-24 c -82,-33 -173,-124 -206,-206 l -24,-60 -3,-782 -3,-783 -737,0 c -462,0 -761,-4 -802,-11 C 165,6485 48,6379 14,6231 -6,6149 -6,4091 14,4009 c 34,-148 151,-254 306,-278 41,-7 340,-11 802,-11 l 737,0 3,-782 3,-783 24,-60 c 33,-82 124,-173 206,-206 l 60,-24 783,-3 782,-3 0,-737 c 0,-462 4,-761 11,-802 24,-155 130,-272 278,-306 82,-20 2140,-20 2222,0 148,34 254,151 278,306 7,41 11,340 11,802 l 0,737 783,3 782,3 60,24 c 82,33 173,124 206,206 l 24,60 3,783 3,782 737,0 c 462,0 761,4 802,11 155,24 272,130 306,278 11,45 14,268 14,1111 0,843 -3,1066 -14,1111 -34,148 -151,254 -306,278 -41,7 -340,11 -802,11 l -737,0 -3,783 -3,782 -24,60 c -33,82 -124,173 -206,206 l -60,24 -782,3 -783,3 0,737 c 0,462 -4,761 -11,802 -24,155 -130,272 -278,306 -79,19 -2150,19 -2227,0 z m 1584,-3708 2,-928 928,-2 927,-3 0,-465 0,-465 -927,-3 -928,-2 -2,-928 -3,-927 -465,0 -465,0 -3,927 -2,928 -928,2 -927,3 0,465 0,465 928,3 927,2 0,923 c 0,508 3,927 7,930 3,4 214,6 467,5 l 461,-3 3,-927 z"
         inkscape:connector-curvature="0" />
    </g>
    <g
       id="flowRoot6105"
       style="font-style:normal;font-weight:normal;font-size:40px;line-height:125%;font-family:Sans;letter-spacing:0px;word-spacing:0px;fill:#ffffff;fill-opacity:1;stroke:#ffffff;stroke-width:1.5;stroke-linecap:butt;stroke-linejoin:miter;stroke-miterlimit:4;stroke-dasharray:none;stroke-opacity:1"
       transform="matrix(3.4784046,0,0,3.4784046,2510.1784,-1147.5477)">
      <path
         id="path4022"
         style="font-style:normal;font-variant:normal;font-weight:normal;font-stretch:normal;font-size:150px;font-family:Sans;-inkscape-font-specification:Sans;stroke:#ffffff;stroke-width:1.5;stroke-miterlimit:4;stroke-dasharray:none;stroke-opacity:1;fill:#ffffff"
         d="m -592.84082,-39.653641 0,6.591796 -61.96289,0 q 0.87891,13.916016 8.34961,21.240235 7.54394,7.2509763 20.94726,7.2509763 7.76368,0 15.01465,-1.9042968 7.32422,-1.9042969 14.50196,-5.7128905 l 0,12.74414047 q -7.25098,3.07617183 -14.86817,4.68750003 -7.61719,1.6113281 -15.4541,1.6113281 -19.62891,0 -31.12793,-11.4257813 -11.42578,-11.4257813 -11.42578,-30.9082033 0,-20.141601 10.83984,-31.933594 10.91309,-11.865234 29.37012,-11.865234 16.55273,0 26.14746,10.693359 9.66797,10.620118 9.66797,28.930665 z m -13.47656,-3.955079 q -0.14649,-11.05957 -6.22559,-17.651367 -6.00586,-6.591797 -15.9668,-6.591797 -11.27929,0 -18.09082,6.372071 -6.73828,6.37207 -7.76367,17.944336 l 48.04688,-0.07324 z"
         inkscape:connector-curvature="0" />
      <path
         id="path4024"
         style="font-style:normal;font-variant:normal;font-weight:normal;font-stretch:normal;font-size:150px;font-family:Sans;-inkscape-font-specification:Sans;stroke:#ffffff;stroke-width:1.5;stroke-miterlimit:4;stroke-dasharray:none;stroke-opacity:1;fill:#ffffff"
         d="m -523.1875,-64.70247 q -2.27051,-1.318359 -4.98047,-1.904296 -2.63672,-0.65918 -5.85937,-0.65918 -11.42578,0 -17.57813,7.470703 -6.0791,7.397461 -6.0791,21.313477 l 0,43.2128902 -13.5498,0 0,-82.0312502 13.5498,0 0,12.744141 q 4.24805,-7.470703 11.05957,-11.059571 6.81152,-3.662109 16.55273,-3.662109 1.39161,0 3.07618,0.219727 1.68457,0.146484 3.73535,0.512695 l 0.0732,13.842773 z"
         inkscape:connector-curvature="0" />
      <path
         id="path4026"
         style="font-style:normal;font-variant:normal;font-weight:normal;font-stretch:normal;font-size:150px;font-family:Sans;-inkscape-font-specification:Sans;stroke:#ffffff;stroke-width:1.5;stroke-miterlimit:4;stroke-dasharray:none;stroke-opacity:1;fill:#ffffff"
         d="m -495.86816,-7.5735633 0,43.5058593 -13.54981,0 0,-113.232422 13.54981,0 0,12.451172 q 4.24804,-7.324219 10.69336,-10.839844 6.51855,-3.588867 15.52734,-3.588867 14.94141,0 24.24316,11.865234 9.375,11.865235 9.375,31.201172 0,19.335938 -9.375,31.2011722 -9.30175,11.8652344 -24.24316,11.8652344 -9.00879,0 -15.52734,-3.515625 -6.44532,-3.58886719 -10.69336,-10.9130859 z m 45.84961,-28.6376957 q 0,-14.868164 -6.15235,-23.291015 -6.0791,-8.496094 -16.77246,-8.496094 -10.69336,0 -16.8457,8.496094 -6.0791,8.422851 -6.0791,23.291015 0,14.868164 6.0791,23.364258 6.15234,8.4228517 16.8457,8.4228517 10.69336,0 16.77246,-8.4228517 6.15235,-8.496094 6.15235,-23.364258 z"
         inkscape:connector-curvature="0" />
      <path
         id="path4028"
         style="font-style:normal;font-variant:normal;font-weight:normal;font-stretch:normal;font-size:150px;font-family:Sans;-inkscape-font-specification:Sans;stroke:#ffffff;stroke-width:1.5;stroke-miterlimit:4;stroke-dasharray:none;stroke-opacity:1;fill:#ffffff"
         d="m -345.50195,-44.780595 0,49.5117192 -13.47657,0 0,-49.0722652 q 0,-11.645508 -4.54101,-17.431641 -4.54102,-5.786133 -13.62305,-5.786133 -10.91308,0 -17.21191,6.958008 -6.29883,6.958008 -6.29883,18.969726 l 0,46.3623052 -13.5498,0 0,-82.0312502 13.5498,0 0,12.744141 q 4.83398,-7.397461 11.35254,-11.059571 6.5918,-3.662109 15.16113,-3.662109 14.13574,0 21.38672,8.789063 7.25098,8.71582 7.25098,25.708007 z"
         inkscape:connector-curvature="0" />
      <path
         id="path4030"
         style="font-style:normal;font-variant:normal;font-weight:normal;font-stretch:normal;font-size:150px;font-family:Sans;-inkscape-font-specification:Sans;stroke:#ffffff;stroke-width:1.5;stroke-miterlimit:4;stroke-dasharray:none;stroke-opacity:1;fill:#ffffff"
         d="m -248.30957,-39.653641 0,6.591796 -61.96289,0 q 0.87891,13.916016 8.34961,21.240235 7.54394,7.2509763 20.94726,7.2509763 7.76368,0 15.01465,-1.9042968 7.32422,-1.9042969 14.50196,-5.7128905 l 0,12.74414047 q -7.25098,3.07617183 -14.86817,4.68750003 -7.61719,1.6113281 -15.4541,1.6113281 -19.62891,0 -31.12793,-11.4257813 -11.42578,-11.4257813 -11.42578,-30.9082033 0,-20.141601 10.83984,-31.933594 10.91309,-11.865234 29.37012,-11.865234 16.55273,0 26.14746,10.693359 9.66797,10.620118 9.66797,28.930665 z m -13.47656,-3.955079 q -0.14649,-11.05957 -6.22559,-17.651367 -6.00586,-6.591797 -15.9668,-6.591797 -11.27929,0 -18.09082,6.372071 -6.73828,6.37207 -7.76367,17.944336 l 48.04688,-0.07324 z"
         inkscape:connector-curvature="0" />
      <path
         id="path4032"
         style="font-style:normal;font-variant:normal;font-weight:normal;font-stretch:normal;font-size:150px;font-family:Sans;-inkscape-font-specification:Sans;stroke:#ffffff;stroke-width:1.5;stroke-miterlimit:4;stroke-dasharray:none;stroke-opacity:1;fill:#ffffff"
         d="m -160.63867,-77.300126 -29.66309,39.916992 31.20117,42.1142582 -15.89355,0 -23.87695,-32.2265622 -23.87696,32.2265622 -15.89355,0 31.86035,-42.9199222 -29.15039,-39.111328 15.89355,0 21.75293,29.223633 21.75293,-29.223633 15.89356,0 z"
         inkscape:connector-curvature="0" />
      <path
         id="path4034"
         style="font-style:normal;font-variant:normal;font-weight:normal;font-stretch:normal;font-size:150px;font-family:Sans;-inkscape-font-specification:Sans;stroke:#ffffff;stroke-width:1.5;stroke-miterlimit:4;stroke-dasharray:none;stroke-opacity:1;fill:#ffffff"
         d="m -126.72754,-100.59114 0,23.291014 27.75879,0 0,10.473633 -27.75879,0 0,44.53125 q 0,10.03418 2.70996,12.890625 2.7832,2.8564453 11.20606,2.8564453 l 13.84277,0 0,11.2792969 -13.84277,0 q -15.60059,0 -21.53321,-5.7861329 -5.93261,-5.859375 -5.93261,-21.2402343 l 0,-44.53125 -9.8877,0 0,-10.473633 9.8877,0 0,-23.291014 13.5498,0 z"
         inkscape:connector-curvature="0" />
    </g>
  </g>
</svg>
